<?xml version="1.0" standalone="no"?><!DOCTYPE svg PUBLIC "-//W3C//DTD SVG 1.1//EN" "http://www.w3.org/Graphics/SVG/1.1/DTD/svg11.dtd"><svg t="1506739059306" class="icon" style="" viewBox="0 0 1024 1024" version="1.1" xmlns="http://www.w3.org/2000/svg" p-id="3326" xmlns:xlink="http://www.w3.org/1999/xlink" width="32" height="32"><defs><style type="text/css"></style></defs><path d="M952.510294 558.238091c12.902868 0 23.372314-10.501168 23.372314-23.404036L975.882608 231.575216c0-18.742876-5.863545-36.087916-15.753799-50.418296-0.407276-0.655939-0.50756-1.402953-0.962931-2.030239-0.775666-1.006933-1.834788-1.566682-2.726088-2.434445-16.284895-20.573571-41.179888-34.012651-69.452815-34.012651L150.830729 142.679583c-49.114604 0-88.897679 39.781028-88.897679 88.895633l0 538.546609c0 49.122791 39.783075 88.872097 88.897679 88.872097l736.157269 0c49.118698 0 88.895633-39.749306 88.895633-88.872097l0-74.069973c-0.071631-12.858866-10.488889-23.280216-23.372314-23.280216-12.879332 0-23.351847 10.42135-23.408129 23.280216l0 69.393463c0 25.858948-20.977777 46.799886-46.795792 46.799886L155.511331 812.245202c-25.814945 0-46.806026-20.941961-46.806026-46.799886L108.705306 236.255819c0-2.558265 0.36532-4.996804 0.74906-7.458879l408.995021 333.6101c0.023536 0 0.067538 0.023536 0.092098 0.048095 3.64911 2.726088 7.794523 3.8814 11.992125 4.340865 1.207501 0.215918 2.390443 0.148379 3.621481 0.171915 1.207501-0.023536 2.38635 0.048095 3.593851-0.171915 4.221138-0.455371 8.370645-1.614777 11.992125-4.340865 0.020466-0.023536 0.071631-0.048095 0.096191-0.048095L928.76652 232.858442c0.075725 1.130753 0.343831 2.242064 0.343831 3.397377l0 298.581306C929.110351 547.736922 939.579797 558.238091 952.510294 558.238091L952.510294 558.238091 952.510294 558.238091zM155.511331 189.45184l726.790948 0c6.15621 0 12.019755 1.258667 17.423835 3.433192L534.154068 512.353041 142.189931 191.630459C146.438699 190.347233 150.850172 189.45184 155.511331 189.45184L155.511331 189.45184 155.511331 189.45184zM155.511331 189.45184" p-id="3327"></path></svg>