<?xml version="1.0" standalone="no"?><!DOCTYPE svg PUBLIC "-//W3C//DTD SVG 1.1//EN" "http://www.w3.org/Graphics/SVG/1.1/DTD/svg11.dtd"><svg t="1506739032891" class="icon" style="" viewBox="0 0 1024 1024" version="1.1" xmlns="http://www.w3.org/2000/svg" p-id="2208" xmlns:xlink="http://www.w3.org/1999/xlink" width="32" height="32"><defs><style type="text/css"></style></defs><path d="M968.210618 893.672727 837.883345 893.672727 837.883345 1005.381818C837.883345 1015.659055 829.5424 1024 819.265164 1024 808.987927 1024 800.646982 1015.659055 800.646982 1005.381818L800.646982 893.672727 670.319709 893.672727C649.746618 893.672727 633.083345 876.990836 633.083345 856.436364L633.083345 688.872727C633.083345 668.299636 649.746618 651.636364 670.319709 651.636364L800.646982 651.636364 800.646982 521.309091C800.646982 511.031855 808.987927 502.690909 819.265164 502.690909 829.5424 502.690909 837.883345 511.031855 837.883345 521.309091L837.883345 651.636364 968.210618 651.636364C988.783709 651.636364 1005.446982 668.299636 1005.446982 688.872727L1005.446982 856.436364C1005.446982 876.990836 988.783709 893.672727 968.210618 893.672727ZM707.556073 688.872727C686.982982 688.872727 670.319709 705.536 670.319709 726.109091L670.319709 819.2C670.319709 839.754473 686.982982 856.436364 707.556073 856.436364L800.646982 856.436364 800.646982 688.872727 707.556073 688.872727ZM968.210618 726.109091C968.210618 705.536 951.547345 688.872727 930.974255 688.872727L837.883345 688.872727 837.883345 856.436364 930.974255 856.436364C951.547345 856.436364 968.210618 839.754473 968.210618 819.2L968.210618 726.109091ZM909.4144 477.872873C897.405673 477.872873 887.686982 468.154182 887.686982 456.145455L887.686982 118.132364C887.686982 76.948945 854.155636 43.436218 812.972218 43.436218L136.722618 43.436218C95.520582 43.436218 62.007855 76.948945 62.007855 118.132364L62.007855 794.158545C62.007855 835.323345 95.520582 868.854691 136.722618 868.854691L539.992436 868.854691 539.992436 912.290909 136.722618 912.290909C71.558982 912.290909 18.553018 859.303564 18.553018 794.158545L18.553018 118.132364C18.553018 52.987345 71.558982 0 136.722618 0L812.972218 0C878.135855 0 931.141818 52.987345 931.141818 118.132364L931.141818 456.145455C931.141818 468.154182 921.404509 477.872873 909.4144 477.872873ZM571.028945 890.712436C571.028945 902.721164 561.310255 912.458473 549.301527 912.458473L546.415709 912.458473 546.415709 869.003636 549.301527 869.003636C561.310255 869.003636 571.028945 878.722327 571.028945 890.712436ZM265.392873 744.727273 223.483345 744.727273 445.877527 179.479273 487.787055 179.479273 654.308073 614.4 612.417164 614.4 587.692218 545.010036 342.751418 545.010036 265.392873 744.727273ZM574.808436 512.577164 497.449891 313.381236C491.008 295.973236 485.627345 279.645091 481.326545 264.3968 477.044364 253.523782 471.663709 240.453818 465.221818 225.205527 458.761309 249.167127 448.037236 277.448145 432.993745 310.104436L355.6352 512.577164 574.808436 512.577164Z" p-id="2209" fill="#3a3a3a"></path></svg>