<?xml version="1.0" standalone="no"?><!DOCTYPE svg PUBLIC "-//W3C//DTD SVG 1.1//EN" "http://www.w3.org/Graphics/SVG/1.1/DTD/svg11.dtd"><svg t="1506743480618" class="icon" style="" viewBox="0 0 1028 1024" version="1.1" xmlns="http://www.w3.org/2000/svg" p-id="3462" xmlns:xlink="http://www.w3.org/1999/xlink" width="48.1875" height="48"><defs><style type="text/css"></style></defs><path d="M0.794919 836.905011c0-10.117149 4.04686-19.800706 11.34566-27.171771L487.068454 336.033874c7.226535-7.009739 16.910092-10.984333 27.027241-10.984333 10.478476 0 20.017502 4.04686 27.171771 10.984333l475.072406 473.699365c7.226535 7.371066 11.201129 17.054622 11.201129 27.171771 0 10.333945-4.04686 19.72844-11.201129 27.099506-7.2988 7.15427-16.693296 11.056598-27.027241 11.056598s-19.945236-3.974594-27.099506-11.056598L514.095695 417.043331l-447.82837 446.961186c-7.2988 7.15427-16.693296 11.056598-27.099506 11.056598-10.333945 0-19.800706-3.974594-26.954975-11.056598C4.841778 856.633451 0.794919 847.238956 0.794919 836.905011z" p-id="3463" fill="#cccccc"></path></svg>